# xmcd
#
# Track frame offsets: 
#        150
#        16245
#        33028
#        40188
#        63057
#        75438
#        108178
#        134856
#        145030
#        159415
#        187464
#        216265
#        227242
#        239526
#        269195
#        284764
#
# Disc length: 3980 seconds
#
# Revision: 2
# Processed by: cddbd v1.5.2PL0 Copyright (c) Steve Scherf et al.
# Submitted via: ExactAudioCopy v0.99pb5
#
DISCID=ed0f8a10
DTITLE=Roy Buchanan - Roy Buchanan and Second Album
DYEAR=2002
DGENRE=Blues
TTITLE0=Sweet Dreams
TTITLE1=I Am A Lonesome Fugitive
TTITLE2=Cajun
TTITLE3=John's Blues
TTITLE4=Haunted House
TTITLE5=Pete's Blue
TTITLE6=The Messiah Will Come Again
TTITLE7=Hey, Good Lookin'
TTITLE8=Filthy Teddy
TTITLE9=After Hours
TTITLE10=Five String Blues
TTITLE11=Thank You Lord
TTITLE12=Treat Her Right
TTITLE13=I Won't Tell You No Lies
TTITLE14=Tribute To Elmore James
TTITLE15=She Once Lived Here
EXTD=
EXTT0=
EXTT1=
EXTT2=
EXTT3=
EXTT4=
EXTT5=
EXTT6=
EXTT7=
EXTT8=
EXTT9=
EXTT10=
EXTT11=
EXTT12=
EXTT13=
EXTT14=
EXTT15=
PLAYORDER=
